<?xml version="1.0" standalone="no"?>
<!DOCTYPE svg PUBLIC "-//W3C//DTD SVG 20010904//EN"
 "http://www.w3.org/TR/2001/REC-SVG-20010904/DTD/svg10.dtd">
<svg version="1.0" xmlns="http://www.w3.org/2000/svg"
 width="512.000000pt" height="512.000000pt" viewBox="0 0 512.000000 512.000000"
 preserveAspectRatio="xMidYMid meet">
<metadata>
Created by potrace 1.14, written by Peter Selinger 2001-2017
</metadata>
<g transform="translate(0.000000,512.000000) scale(0.100000,-0.100000)"
fill="#000000" stroke="none">
<path d="M2616 5099 c-74 -58 -129 -244 -130 -440 l0 -47 -34 58 c-68 115
-163 198 -295 260 -144 68 -231 84 -454 84 -105 1 -194 -2 -198 -6 -4 -4 1
-42 11 -85 9 -43 19 -82 20 -88 8 -40 67 -192 97 -250 35 -70 101 -166 151
-218 14 -15 26 -31 26 -35 0 -4 -19 -13 -42 -20 -24 -7 -106 -44 -183 -81
-354 -173 -624 -405 -863 -742 -45 -64 -68 -88 -89 -92 -51 -12 -58 -22 -56
-84 2 -50 -4 -72 -44 -158 -83 -182 -160 -445 -178 -615 -4 -30 -9 -62 -12
-70 -10 -25 -11 -381 -2 -455 39 -318 100 -528 229 -788 150 -301 384 -580
655 -782 263 -196 609 -352 890 -400 209 -37 204 -36 410 -40 194 -3 323 8
480 40 610 126 1134 495 1459 1028 83 136 154 284 199 417 64 190 95 329 114
515 9 85 9 391 1 460 -35 274 -90 469 -191 685 -33 68 -41 98 -43 150 -1 36
-3 68 -3 72 -1 3 -21 14 -46 24 -36 13 -54 29 -83 73 -166 250 -462 534 -703
671 -100 58 -313 157 -403 189 -104 36 -106 37 -89 57 38 42 99 161 129 252
23 67 51 186 47 199 -3 7 -49 11 -131 12 -191 2 -333 -31 -449 -105 -66 -42
-146 -122 -165 -165 -17 -39 -27 -37 -22 4 15 101 50 212 96 305 28 57 51 117
51 132 0 80 -95 128 -157 79z"/>
</g>
</svg>
